<?xml version="1.0" standalone="no"?>
<!DOCTYPE svg PUBLIC "-//W3C//DTD SVG 20010904//EN"
 "http://www.w3.org/TR/2001/REC-SVG-20010904/DTD/svg10.dtd">
<svg version="1.0" xmlns="http://www.w3.org/2000/svg"
 width="512.000000pt" height="512.000000pt" viewBox="0 0 512.000000 512.000000"
 preserveAspectRatio="xMidYMid meet">
<metadata>
Created by potrace 1.14, written by Peter Selinger 2001-2017
</metadata>
<g transform="translate(0.000000,512.000000) scale(0.100000,-0.100000)"
fill="#000000" stroke="none">
<path d="M2379 5116 c-2 -2 -35 -6 -74 -10 -187 -16 -414 -67 -616 -139 -505
-180 -960 -537 -1261 -991 -182 -273 -312 -587 -377 -906 -20 -97 -27 -148
-41 -280 -8 -78 -5 -466 4 -510 3 -14 7 -45 10 -70 28 -243 133 -578 254 -810
65 -124 71 -134 143 -244 274 -418 681 -759 1137 -954 135 -57 396 -136 522
-157 19 -3 42 -8 50 -10 8 -2 44 -7 80 -10 36 -4 87 -11 115 -15 51 -8 469 -5
515 4 14 2 45 7 70 10 25 4 56 8 70 11 14 3 41 7 60 10 19 3 82 17 140 32 388
94 754 286 1065 557 226 197 439 463 574 720 75 143 179 394 196 476 2 8 10
40 19 70 55 195 80 399 81 655 0 219 -10 337 -41 485 -9 41 -18 86 -20 100
-10 53 -66 237 -101 329 -322 863 -1134 1510 -2043 1627 -25 3 -56 8 -70 11
-28 5 -456 14 -461 9z m456 -162 c568 -68 1066 -315 1460 -725 373 -387 582
-828 660 -1394 11 -73 14 -452 5 -510 -4 -28 -10 -72 -14 -100 -7 -57 -9 -71
-32 -175 -101 -470 -332 -884 -684 -1224 -391 -376 -858 -595 -1415 -663 -122
-15 -499 -8 -604 12 -9 1 -36 6 -61 10 -220 35 -491 127 -695 234 -259 137
-437 271 -637 480 -288 301 -485 651 -589 1050 -32 125 -31 119 -55 271 -19
120 -27 452 -13 570 24 213 70 418 134 595 191 533 619 1028 1120 1295 287
153 626 257 904 277 47 3 88 7 90 9 10 9 327 -1 426 -12z"/>
<path d="M2288 4216 c-24 -12 -48 -76 -157 -421 -27 -88 -80 -254 -116 -370
-37 -115 -78 -246 -92 -290 -13 -44 -44 -141 -68 -215 -67 -212 -94 -302 -100
-337 -6 -35 15 -95 43 -126 43 -48 58 -50 385 -51 l308 0 -6 -36 c-12 -63 -9
-77 20 -104 28 -26 74 -25 100 3 21 25 60 200 51 235 -12 49 -34 51 -401 51
-216 0 -339 3 -344 10 -4 5 57 215 137 465 79 250 156 496 172 545 129 412
154 491 158 495 6 8 622 7 622 -1 0 -3 -10 -28 -21 -55 -34 -75 -35 -109 -5
-139 29 -29 65 -32 94 -7 19 15 122 254 122 281 0 20 -23 60 -39 67 -27 13
-837 13 -863 0z"/>
<path d="M2859 3688 c-11 -13 -94 -208 -185 -435 -175 -438 -177 -447 -128
-480 21 -13 68 -16 319 -16 239 0 295 -2 295 -13 0 -7 -11 -37 -24 -66 -71
-156 -258 -567 -407 -895 -93 -205 -169 -382 -169 -393 0 -30 41 -67 89 -80
22 -6 41 -13 41 -15 0 -9 -340 -348 -344 -344 -4 4 -13 56 -21 114 -5 45 -17
132 -20 155 -17 111 -26 202 -22 207 3 3 20 0 38 -6 47 -16 67 -14 93 12 21
21 33 58 60 192 3 11 12 54 21 95 9 41 19 86 21 100 3 14 12 50 20 81 20 82
18 116 -11 144 -30 31 -56 32 -90 3 -23 -20 -32 -51 -75 -243 -28 -121 -50
-221 -50 -222 0 -1 -25 7 -57 18 -73 25 -89 24 -120 -7 -23 -23 -25 -30 -19
-87 4 -34 9 -71 11 -82 2 -11 7 -42 10 -70 15 -125 20 -158 30 -220 3 -16 7
-48 10 -70 5 -46 15 -119 21 -155 2 -14 6 -50 10 -80 11 -97 47 -138 103 -119
39 14 588 567 596 602 11 41 -16 72 -80 96 -31 12 -60 21 -65 21 -22 0 -17 24
21 107 23 48 61 133 86 188 25 55 56 125 70 155 408 887 386 834 370 911 -8
38 -54 88 -98 106 -17 8 -114 12 -265 13 -131 0 -239 2 -241 4 -3 2 89 237
117 301 50 111 160 404 160 425 0 60 -82 92 -121 48z"/>
</g>
</svg>
